<svg xmlns="http://www.w3.org/2000/svg" xmlns:xlink="http://www.w3.org/1999/xlink" width="30" height="30" viewBox="0 0 30 30"><defs><path id="a" d="M87 492a15 15 0 1 1 30.01.01A15 15 0 0 1 87 492zm11.7-7.95c-.85.04-1.43.17-1.94.37a3.94 3.94 0 0 0-2.34 2.34c-.2.51-.33 1.09-.37 1.94A55.1 55.1 0 0 0 94 492c0 2.17.01 2.44.05 3.3.04.85.17 1.43.37 1.94a3.94 3.94 0 0 0 2.34 2.34c.51.2 1.09.33 1.94.37.85.04 1.13.05 3.3.05s2.44-.01 3.3-.05a5.85 5.85 0 0 0 1.94-.37 3.94 3.94 0 0 0 2.34-2.34c.2-.51.33-1.09.37-1.94.04-.86.05-1.13.05-3.3s-.01-2.45-.05-3.3a5.85 5.85 0 0 0-.37-1.94 4.08 4.08 0 0 0-2.34-2.34 5.85 5.85 0 0 0-1.94-.37c-.86-.04-1.13-.05-3.3-.05s-2.44.01-3.3.05z"/><path id="b" d="M101.56 485c2.13 0 2.39.01 3.23.05.78.03 1.2.16 1.49.27a2.57 2.57 0 0 1 1.51 1.52c.11.28.24.71.28 1.49.04.84.05 1.09.05 3.23 0 2.13-.01 2.39-.05 3.23-.04.78-.17 1.2-.28 1.49-.14.37-.31.63-.59.91-.28.28-.55.46-.92.6-.29.11-.71.24-1.49.28-.84.04-1.1.04-3.23.04-2.14 0-2.39 0-3.23-.04a4.52 4.52 0 0 1-1.49-.28 2.45 2.45 0 0 1-.92-.6 2.49 2.49 0 0 1-.6-.92c-.11-.28-.24-.7-.27-1.48-.04-.84-.05-1.1-.05-3.23 0-2.14.01-2.39.05-3.24.03-.78.16-1.2.27-1.48.15-.37.32-.64.6-.92.28-.28.55-.45.92-.6.28-.11.71-.24 1.49-.27.73-.04 1.02-.05 2.51-.05h.72zm3.31 2.29a.96.96 0 1 0 1.92 0 .96.96 0 0 0-1.92 0zm-7.42 4.27a4.11 4.11 0 1 0 8.22 0 4.11 4.11 0 0 0-8.22 0z"/><path id="c" d="M101.67 489a2.66 2.66 0 1 1 0 5.32 2.66 2.66 0 0 1 0-5.32z"/></defs><desc>Generated with Avocode.</desc><g transform="translate(-87 -477)"><use fill="#fff" xlink:href="#a"/></g><g transform="translate(-87 -477)"><use fill="#fff" xlink:href="#b"/></g><g transform="translate(-87 -477)"><use fill="#fff" xlink:href="#c"/></g></svg>