<svg xmlns="http://www.w3.org/2000/svg" xmlns:xlink="http://www.w3.org/1999/xlink" width="1075" height="194" viewBox="0 0 1075 194"><defs><path id="a" d="M1122.81 348.85c4.86 0 3.26-2.87 2.52-6.38-.75-3.56-10.65-50.85-11.96-55.48-1.32-4.63-3.42-4.36-4.73-4.36-1.31 0-2.36 1.09-3.15 4.63s-9.39 46.73-11.62 55.85c-1.11 4.52 0 5.67 2.27 5.68 3.32.01 13.28-.01 13.28-.01s7.7.07 13.39.07zm93.19 63.78h-71.19l-7.16-23.58h-57.56l-5.94 23.58H939.54s-59.75-96.32-61.4-98.72c-1.65-2.41-3.03-4.4-4.95-4.4-1.92 0-4.45.48-2.25 10.09 2.2 9.62 2.88 13.3 2.88 22.65v70.38h-63.71l.12-60.25c0-3.74-.82-5.47-2.47-5.47-1.65 0-2.47 1.81-3.02 5.29-.55 3.47-5.5 28.55-18.7 40.04-13.19 11.49-31.89 23.76-69 23.76s-53.33-10.69-63.78-18.17c-10.44-7.48-25.02-30.2-25.56-44.89-.55-14.69.27-59.59.27-66.27 0 0 1.51-7.68-6.05-7.68h-32.24v133.64h-66.74V281.94s.71-3.93-4.04-3.93h-36.41V222h211.34s.39 98.59.39 109.54c0 0-1.73 28.2 20.81 28.2 22.55 0 23.29-18.29 23.29-28.18V222h137.52l63.7 106.36V222h64.72l.06 167.25c0 4.01-.82 6.82 1.93 7.09 2.74.27 3.57-2.61 5.22-7.42 1.65-4.81 58.83-166.92 58.83-166.92h76.53zm-796.76-63.78c4.86 0 3.26-2.87 2.52-6.38-.75-3.56-10.65-50.85-11.96-55.48-1.31-4.63-3.42-4.36-4.73-4.36-1.31 0-2.36 1.09-3.15 4.63s-9.39 46.73-11.62 55.85c-1.1 4.52 0 5.67 2.27 5.68 3.32.01 13.28-.01 13.28-.01s7.71.07 13.39.07zM209.3 359.5s51.46 8.22 51.46-39.46-51.46-40.8-51.46-40.8zm302.2 52.77h-70.88l-6.75-23.52h-58.61l-5.36 23.52h-70.04s5.81-16.93 7.17-21.46c1.37-4.53 2.46-8.12.55-8.65-1.91-.54-3.83 1.27-6.29 3.93-2.46 2.67-17.22 13.83-25.69 17.83-8.47 3.99-26.77 8.24-46.99 8.24-20.23 0-87.61.11-87.61.11V222.12h50.27s38.95-1.32 62.46 4.81c23.51 6.12 44.28 18.26 53.3 29.19 9.02 10.92 18.59 34.58 19.68 46.3 1.1 11.72-.27 18.62 3.01 18.62s2.73-2.38 3.83-6.91c1.09-4.53 33.07-92.01 33.07-92.01h75z"/></defs><desc>Generated with Avocode.</desc><g transform="translate(-141 -222)"><use fill="#f8f8f8" fill-opacity=".9" xlink:href="#a"/></g></svg>