<?xml version="1.0" standalone="no"?>
<!DOCTYPE svg PUBLIC "-//W3C//DTD SVG 20010904//EN"
 "http://www.w3.org/TR/2001/REC-SVG-20010904/DTD/svg10.dtd">
<svg version="1.0" xmlns="http://www.w3.org/2000/svg"
 width="102.000000pt" height="102.000000pt" viewBox="0 0 102.000000 102.000000"
 preserveAspectRatio="xMidYMid meet">
<metadata>
Created by potrace 1.11, written by Peter Selinger 2001-2013
</metadata>
<g transform="translate(0.000000,102.000000) scale(0.100000,-0.100000)"
fill="#000000" stroke="none">
<path d="M100 509 l0 -461 233 4 c202 4 239 8 288 25 178 65 274 201 284 403
13 257 -115 433 -345 476 -36 7 -153 13 -262 14 l-198 1 0 -462z m410 221 c43
-16 84 -53 104 -95 64 -134 11 -312 -103 -345 -58 -17 -142 -24 -149 -12 -5 7
-7 452 -3 470 2 7 120 -7 151 -18z"/>
</g>
</svg>
